<svg version="1.1" viewBox="0.0 0.0 679.0 656.0" fill="none" stroke="none" stroke-linecap="square" stroke-miterlimit="10" xmlns:xlink="http://www.w3.org/1999/xlink" xmlns="http://www.w3.org/2000/svg"><clipPath id="p.0"><path d="m0 0l679.0 0l0 656.0l-679.0 0l0 -656.0z" clip-rule="nonzero"/></clipPath><g clip-path="url(#p.0)"><path fill="#000000" fill-opacity="0.0" d="m0 0l679.0 0l0 656.0l-679.0 0z" fill-rule="evenodd"/><path fill="#000000" fill-opacity="0.0" d="m339.50085 8.003689l0 640.0" fill-rule="evenodd"/><path stroke="#000000" stroke-width="8.0" stroke-linejoin="round" stroke-linecap="butt" d="m339.50085 8.003689l0 640.0" fill-rule="evenodd"/><path fill="#000000" fill-opacity="0.0" d="m659.50085 328.0037l-640.0 0" fill-rule="evenodd"/><path stroke="#000000" stroke-width="8.0" stroke-linejoin="round" stroke-linecap="butt" d="m659.50085 328.0037l-640.0 0" fill-rule="evenodd"/><path fill="#000000" fill-opacity="0.0" d="m292.636 54.864l-226.27199 226.27199" fill-rule="evenodd"/><path stroke="#ff0000" stroke-width="8.0" stroke-linejoin="round" stroke-linecap="butt" d="m292.636 54.864l-226.27199 226.27199" fill-rule="evenodd"/><path fill="#000000" fill-opacity="0.0" d="m292.636 281.136l-226.27199 -226.27199" fill-rule="evenodd"/><path stroke="#ff0000" stroke-width="8.0" stroke-linejoin="round" stroke-linecap="butt" d="m292.636 281.136l-226.27199 -226.27199" fill-rule="evenodd"/><path fill="#000000" fill-opacity="0.0" d="m612.636 374.864l-226.27197 226.27197" fill-rule="evenodd"/><path stroke="#ff0000" stroke-width="8.0" stroke-linejoin="round" stroke-linecap="butt" d="m612.636 374.864l-226.27197 226.27197" fill-rule="evenodd"/><path fill="#000000" fill-opacity="0.0" d="m612.636 601.136l-226.27197 -226.27197" fill-rule="evenodd"/><path stroke="#ff0000" stroke-width="8.0" stroke-linejoin="round" stroke-linecap="butt" d="m612.636 601.136l-226.27197 -226.27197" fill-rule="evenodd"/><path fill="#000000" fill-opacity="0.0" d="m379.50085 164.83833l0 0c0 -68.02235 55.143036 -123.16535 123.165375 -123.16535l0 0c32.665497 0 63.993073 12.976311 87.091034 36.074295c23.098022 23.097984 36.07434 54.425575 36.07434 87.09106l0 0c0 68.022354 -55.143005 123.16536 -123.165375 123.16536l0 0c-68.02234 0 -123.165375 -55.143005 -123.165375 -123.16536z" fill-rule="evenodd"/><path stroke="#666666" stroke-width="8.0" stroke-linejoin="round" stroke-linecap="butt" d="m379.50085 164.83833l0 0c0 -68.02235 55.143036 -123.16535 123.165375 -123.16535l0 0c32.665497 0 63.993073 12.976311 87.091034 36.074295c23.098022 23.097984 36.07434 54.425575 36.07434 87.09106l0 0c0 68.022354 -55.143005 123.16536 -123.165375 123.16536l0 0c-68.02234 0 -123.165375 -55.143005 -123.165375 -123.16536z" fill-rule="evenodd"/><path fill="#000000" fill-opacity="0.0" d="m59.50087 491.16904l0 0c0 -68.02234 55.143005 -123.165344 123.16536 -123.165344l0 0c32.66548 0 63.993073 12.976318 87.091064 36.07428c23.097961 23.097992 36.07428 54.4256 36.07428 87.091064l0 0c0 68.02237 -55.143005 123.165375 -123.165344 123.165375l0 0c-68.022354 0 -123.16536 -55.143005 -123.16536 -123.165375z" fill-rule="evenodd"/><path stroke="#666666" stroke-width="8.0" stroke-linejoin="round" stroke-linecap="butt" d="m59.50087 491.16904l0 0c0 -68.02234 55.143005 -123.165344 123.16536 -123.165344l0 0c32.66548 0 63.993073 12.976318 87.091064 36.07428c23.097961 23.097992 36.07428 54.4256 36.07428 87.091064l0 0c0 68.02237 -55.143005 123.165375 -123.165344 123.165375l0 0c-68.022354 0 -123.16536 -55.143005 -123.16536 -123.165375z" fill-rule="evenodd"/></g></svg>